# xmcd
#
# Track frame offsets:
#	150
#	18182
#	36022
#	55112
#	68883
#	85434
#	102006
#	119039
#	139295
#	154615
#	172502
#
# Disc length: 2514 seconds
#
# Revision: 0
# Processed by: cddbd v1.5.2PL0 Copyright (c) Steve Scherf et al.
# Submitted via: EasyCDDAExtractor 16.0.6.1
#
DISCID=8609d00b
DTITLE=Jason Aldean - Wide Open
DYEAR=2009
DGENRE=Country
TTITLE0=Wide Open
TTITLE1=This I Gotta See
TTITLE2=Fast
TTITLE3=Crazy Town
TTITLE4=Don't Give Up on Me
TTITLE5=She's Country
TTITLE6=On My Highway
TTITLE7=Keep the Girl
TTITLE8=Big Green Tractor
TTITLE9=The Truth
TTITLE10=Love Was Easy
EXTD=
EXTT0=
EXTT1=
EXTT2=
EXTT3=
EXTT4=
EXTT5=
EXTT6=
EXTT7=
EXTT8=
EXTT9=
EXTT10=
PLAYORDER=
